<svg width="18" height="20" viewBox="0 0 23 29" fill="none" xmlns="http://www.w3.org/2000/svg">
<path d="M11.5 18C10.1458 18 8.99479 17.5625 8.04687 16.6875C7.09896 15.8125 6.625 14.75 6.625 13.5V4.5C6.625 3.25 7.09896 2.1875 8.04687 1.3125C8.99479 0.4375 10.1458 0 11.5 0C12.8542 0 14.0052 0.4375 14.9531 1.3125C15.901 2.1875 16.375 3.25 16.375 4.5V13.5C16.375 14.75 15.901 15.8125 14.9531 16.6875C14.0052 17.5625 12.8542 18 11.5 18ZM9.875 28.5V23.8875C7.05833 23.5375 4.72917 22.375 2.8875 20.4C1.04583 18.425 0.125 16.125 0.125 13.5H3.375C3.375 15.575 4.16719 17.3438 5.75156 18.8063C7.33594 20.2688 9.25208 21 11.5 21C13.7479 21 15.6641 20.2688 17.2484 18.8063C18.8328 17.3438 19.625 15.575 19.625 13.5H22.875C22.875 16.125 21.9542 18.425 20.1125 20.4C18.2708 22.375 15.9417 23.5375 13.125 23.8875V28.5H9.875ZM11.5 15C11.9604 15 12.3464 14.8563 12.6578 14.5688C12.9693 14.2813 13.125 13.925 13.125 13.5V4.5C13.125 4.075 12.9693 3.71875 12.6578 3.43125C12.3464 3.14375 11.9604 3 11.5 3C11.0396 3 10.6536 3.14375 10.3422 3.43125C10.0307 3.71875 9.875 4.075 9.875 4.5V13.5C9.875 13.925 10.0307 14.2813 10.3422 14.5688C10.6536 14.8563 11.0396 15 11.5 15Z" fill="#EB303F"/>
</svg>
