<svg width="17" height="17" viewBox="0 0 15 15" fill="none" xmlns="http://www.w3.org/2000/svg">
<g clip-path="url(#clip0_222_4143)">
<path d="M14.5137 13.2467C14.2887 12.7042 14.0566 12.1674 13.8316 11.6296C13.125 9.94791 12.5016 8.20768 11.7879 6.51901C11.0789 4.84323 10.5117 3.11471 9.84492 1.42369C9.70664 1.07213 9.46758 0.365491 9.03984 0.291663C8.11992 0.133459 8.09765 1.48346 8.0789 2.03658C8.04726 3.03971 8.17968 4.03463 8.25937 5.03307C8.32851 5.88737 8.36718 6.74987 8.57695 7.58424C8.73515 8.21002 8.98593 8.88385 9.4875 9.31744C9.73945 9.53541 10.0711 9.62565 10.4004 9.59518C10.7426 9.56471 11.0602 9.32682 11.4094 9.36549C11.4996 9.37604 11.5957 9.43112 11.6555 9.50026C11.8453 9.72408 11.8969 10.1495 11.9637 10.4272C12.1805 11.3214 12.3949 12.226 12.6633 13.1061C12.8262 13.6381 13.0395 14.3178 13.5094 14.6624C13.7965 14.871 14.2687 14.9917 14.5605 14.7303C14.9977 14.3424 14.6941 13.678 14.5137 13.2467ZM6.15469 0.826038C5.98711 0.848303 5.89453 1.42252 5.84179 1.59244C5.74922 1.8983 5.66015 2.31197 5.51718 2.70221C5.51601 2.70572 5.51484 2.70807 5.51367 2.71041C5.50312 2.73737 5.49258 2.76666 5.47968 2.79713C5.46679 2.82643 5.4539 2.85455 5.44218 2.88385C5.35781 3.07018 5.23476 3.28463 5.08945 3.36432C4.92422 3.45572 4.63711 3.35026 4.575 3.1733C4.47304 2.88502 4.63125 2.34479 4.62539 2.32604C4.6875 2.06705 4.85976 1.27955 4.94297 0.752209C4.94883 0.712366 5.0039 0.477991 4.80586 0.398303C4.71328 0.361975 4.59023 0.419397 4.5164 0.564709C4.29843 0.993616 3.97617 1.83619 3.93398 1.97096C3.92929 1.98385 3.92461 1.99908 3.92109 2.01197C3.92109 2.01197 3.91992 2.01432 3.91992 2.01549C3.91172 2.04362 3.69726 2.71393 3.46875 2.90377C3.34922 3.00338 3.09843 3.03971 2.90976 2.84987C2.83476 2.77369 2.80078 2.65651 2.78672 2.53697C2.75508 1.72018 3.1875 0.945569 3.32343 0.557678C3.36211 0.448694 3.55898 0.102991 3.33867 0.0572876C3.00703 -0.011853 2.19843 1.31822 2.03437 1.62877C1.6289 2.40221 1.36523 3.27408 1.47422 4.15416C1.53515 4.64166 1.78828 5.09518 2.175 5.3858C2.34609 5.51354 2.54414 5.62604 2.76093 5.71862C2.17851 7.56783 1.56328 9.49557 1.18828 10.5596C0.904684 11.36 0.607028 12.1663 0.397262 12.9901C0.271872 13.4823 0.110153 14.0659 0.310544 14.5604C0.520309 15.0772 1.25859 15.0631 1.57968 14.6049C1.94062 14.0881 2.05898 13.4049 2.26992 12.335C2.48086 11.2639 2.78554 9.80729 2.94843 9.0233C3.18867 7.86901 3.43242 6.8694 3.66914 5.96119C4.26914 6.03033 4.87617 5.91783 5.3039 5.52643C5.4914 5.35533 5.64023 5.14791 5.76328 4.92643C5.95078 4.59127 6.10078 4.20924 6.18047 3.83307C6.25195 3.48619 6.69375 0.754553 6.15469 0.826038Z" fill="#EB3830"/>
</g>
<defs>
<clipPath id="clip0_222_4143">
<rect width="15" height="15" fill="white"/>
</clipPath>
</defs>
</svg>
