<svg width="103" height="14" viewBox="0 0 103 14" fill="none" xmlns="http://www.w3.org/2000/svg">
<path d="M84.75 2.49L85.21 2.95C84.77 3.35 84.42 3.77333 84.16 4.22C83.9 4.66 83.7133 5.12667 83.6 5.62C83.4867 6.10667 83.43 6.63 83.43 7.19C83.43 7.74333 83.4867 8.26667 83.6 8.76C83.7133 9.25333 83.9 9.72 84.16 10.16C84.42 10.6 84.77 11.0233 85.21 11.43L84.75 11.89C84.0433 11.2767 83.51 10.5767 83.15 9.79C82.79 8.99667 82.61 8.13 82.61 7.19C82.61 6.25 82.79 5.38333 83.15 4.59C83.51 3.79667 84.0433 3.09667 84.75 2.49ZM88.7166 10V8.27H85.4966V7.68L88.5066 3.4H89.5166V7.58H90.6866V8.27H89.5166V10H88.7166ZM86.3466 7.58H88.7166V5.11C88.7166 4.93667 88.72 4.76 88.7266 4.58C88.74 4.4 88.75 4.22333 88.7566 4.05H88.7366C88.6566 4.21667 88.5533 4.40333 88.4266 4.61C88.3 4.81667 88.1833 4.99667 88.0766 5.15L86.3466 7.58ZM92.3925 8.8C92.5858 8.8 92.7425 8.86 92.8625 8.98C92.9825 9.1 93.0425 9.25667 93.0425 9.45C93.0425 9.64333 92.9825 9.8 92.8625 9.92C92.7425 10.04 92.5858 10.1 92.3925 10.1C92.1992 10.1 92.0425 10.04 91.9225 9.92C91.8025 9.8 91.7425 9.64333 91.7425 9.45C91.7425 9.25667 91.8025 9.1 91.9225 8.98C92.0425 8.86 92.1992 8.8 92.3925 8.8ZM96.5846 10.1C95.8379 10.1 95.2413 9.81 94.7946 9.23C94.3479 8.65 94.1246 7.80667 94.1246 6.7C94.1246 5.59333 94.3479 4.75 94.7946 4.17C95.2413 3.59 95.8379 3.3 96.5846 3.3C97.3379 3.3 97.9346 3.59 98.3746 4.17C98.8213 4.75 99.0446 5.59333 99.0446 6.7C99.0446 7.80667 98.8213 8.65 98.3746 9.23C97.9346 9.81 97.3379 10.1 96.5846 10.1ZM96.5846 9.38C96.9379 9.38 97.2346 9.28 97.4746 9.08C97.7213 8.87333 97.9046 8.57 98.0246 8.17C98.1513 7.77 98.2146 7.28 98.2146 6.7C98.2146 6.12 98.1513 5.63 98.0246 5.23C97.9046 4.83 97.7213 4.53 97.4746 4.33C97.2346 4.12333 96.9379 4.02 96.5846 4.02C96.2313 4.02 95.9313 4.12333 95.6846 4.33C95.4446 4.53 95.2613 4.83 95.1346 5.23C95.0146 5.63 94.9546 6.12 94.9546 6.7C94.9546 7.28 95.0146 7.77 95.1346 8.17C95.2613 8.57 95.4446 8.87333 95.6846 9.08C95.9313 9.28 96.2313 9.38 96.5846 9.38ZM100.123 11.89L99.663 11.43C100.103 11.0233 100.453 10.6 100.713 10.16C100.973 9.72 101.16 9.25333 101.273 8.76C101.386 8.26667 101.443 7.74333 101.443 7.19C101.443 6.63 101.386 6.10667 101.273 5.62C101.16 5.12667 100.973 4.66 100.713 4.22C100.453 3.77333 100.103 3.35 99.663 2.95L100.123 2.49C100.83 3.09667 101.363 3.79667 101.723 4.59C102.083 5.38333 102.263 6.25 102.263 7.19C102.263 8.13 102.083 8.99667 101.723 9.79C101.363 10.5767 100.83 11.2767 100.123 11.89Z" fill="#EB3830"/>
<path d="M6 1L7.34708 5.1459H11.7063L8.17963 7.7082L9.52671 11.8541L6 9.2918L2.47329 11.8541L3.82037 7.7082L0.293661 5.1459H4.65292L6 1Z" fill="#EB3830"/>
<path d="M22 1L23.3471 5.1459H27.7063L24.1796 7.7082L25.5267 11.8541L22 9.2918L18.4733 11.8541L19.8204 7.7082L16.2937 5.1459H20.6529L22 1Z" fill="#EB3830"/>
<path d="M38 1L39.3471 5.1459H43.7063L40.1796 7.7082L41.5267 11.8541L38 9.2918L34.4733 11.8541L35.8204 7.7082L32.2937 5.1459H36.6529L38 1Z" fill="#EB3830"/>
<path d="M54 1L55.3471 5.1459H59.7063L56.1796 7.7082L57.5267 11.8541L54 9.2918L50.4733 11.8541L51.8204 7.7082L48.2937 5.1459H52.6529L54 1Z" fill="#EB3830"/>
<path d="M70 1L71.3471 5.1459H75.7063L72.1796 7.7082L73.5267 11.8541L70 9.2918L66.4733 11.8541L67.8204 7.7082L64.2937 5.1459H68.6529L70 1Z" fill="#EB3830" fill-opacity="0.5"/>
</svg>
